<svg width="100" height="100" viewBox="0 0 100 100" fill="none" xmlns="http://www.w3.org/2000/svg">
<path d="M49.396 62.0101C52.7945 62.0101 55.5597 59.2363 55.5597 55.8271C55.5597 52.4179 52.7945 49.644 49.396 49.644C45.9976 49.644 43.2324 52.4179 43.2324 55.8271C43.2324 59.2363 45.9976 62.0101 49.396 62.0101ZM49.396 51.5762C51.7324 51.5762 53.6335 53.4833 53.6335 55.8271C53.6335 58.1709 51.7324 60.0779 49.396 60.0779C47.0596 60.0779 45.1586 58.1709 45.1586 55.8271C45.1586 53.4833 47.0593 51.5762 49.396 51.5762Z" fill="#4E9BB9"/>
<path d="M72.5099 58.339H72.3172V54.2813C72.3172 53.9961 72.1917 53.7256 71.9736 53.5417L58.6833 42.3349C58.5932 42.2588 58.4903 42.2016 58.3809 42.1633L49.9614 25.6152C49.9668 25.5742 49.9737 25.534 49.9737 25.4915V16.9898H53.0556C53.5876 16.9898 54.0186 16.5574 54.0186 16.0237C54.0186 15.4901 53.5876 15.0576 53.0556 15.0576H49.9737V11.9661C49.9737 11.4324 49.5427 11 49.0107 11C48.4787 11 48.0476 11.4324 48.0476 11.9661V15.0576H44.9658C44.4338 15.0576 44.0027 15.4901 44.0027 16.0237C44.0027 16.5574 44.4338 16.9898 44.9658 16.9898H48.0476V25.0973C48.0349 25.1174 48.0172 25.1314 48.006 25.1534L39.3276 42.3465C39.3207 42.3527 39.3122 42.3569 39.3057 42.3635L27.1711 53.5703C26.9731 53.7531 26.8602 54.0108 26.8602 54.281V58.3386H26.6676C21.8881 58.3386 18 62.2393 18 67.0335V87.5148C18 88.0485 18.4311 88.4809 18.9631 88.4809H27.8233H71.3538H80.214C80.746 88.4809 81.177 88.0485 81.177 87.5148V67.0335C81.1774 62.2397 77.289 58.339 72.5099 58.339ZM48.8708 27.6301L56.2171 42.1085H41.6024L48.8708 27.6301ZM19.9265 67.0339C19.9265 63.3051 22.9509 60.2712 26.668 60.2712H26.8606V86.5491H19.9265V67.0339ZM28.7867 59.3051V54.7053L39.9155 44.4271H57.9845C57.9872 44.4271 57.9903 44.4271 57.9922 44.4271C58.0473 44.4271 58.1005 44.4202 58.1532 44.4116L70.3915 54.7312V59.3051V86.5491H55.3677V72.4479C55.3677 69.1431 52.6892 66.4542 49.3967 66.4542C46.1042 66.4542 43.4257 69.1431 43.4257 72.4479V86.5491H28.7871V59.3051H28.7867ZM45.3514 86.1627V72.4479C45.3514 70.2085 47.1658 68.3864 49.3963 68.3864C51.6268 68.3864 53.4412 70.2085 53.4412 72.4479V86.1627H45.3514ZM79.2513 86.5491H72.3172V60.2712H72.5099C76.2269 60.2712 79.2513 63.3051 79.2513 67.0339V86.5491Z" fill="#4E9BB9"/>
</svg>
