<svg width="100" height="100" viewBox="0 0 100 100" fill="none" xmlns="http://www.w3.org/2000/svg">
<path d="M4.24219 74.9167H95.7578" stroke="#4E9BB9" stroke-width="2"/>
<path d="M19.53 43.1574C19.8653 41.8999 20.6198 37.1214 17.8533 35.78C15.6401 34.707 13.2424 38.6304 12.3202 40.7262C11.6221 42.1148 10.0566 47.1139 10.0566 52.5469C10.0567 54.1963 10.4717 59.0981 11.8674 60.4014C12.1273 60.6441 12.4735 60.7728 12.7766 60.9587V60.9587C14.2361 61.8536 15.0365 63.5177 15.0303 65.2297C15.024 67.0004 15.1274 68.7807 15.1706 69.8169C15.2544 71.8289 15.6736 73.8409 17.8533 74.1763C20.0331 74.5116 20.4521 71.3259 20.4521 70.739C20.4521 70.1522 21.1228 62.6071 20.9551 60.6789C20.7875 58.7507 20.1878 53.6949 19.1818 50.9283" stroke="#4E9BB9" stroke-width="2"/>
<path d="M22.3682 48.624C21.8024 48.3411 20.0104 43.9479 19.1851 41.7867C19.1851 41.3145 18.0563 40.7293 16.4615 41.2682C14.8667 41.8072 15.7036 43.2893 15.9564 44.0752L19.1851 50.9242L28.4194 53.3944C29.0931 53.6002 30.5752 53.72 31.1141 52.5523C31.6531 51.3846 30.0662 50.6061 29.2054 50.3629C27.162 49.9011 22.9339 48.9069 22.3682 48.624Z" stroke="#4E9BB9" stroke-width="2"/>
<circle cx="23.3668" cy="29.5147" r="4.43125" stroke="#4E9BB9" stroke-width="2"/>
<rect x="33.8076" y="45.7324" width="6.8408" height="9.81346" rx="1" transform="rotate(47.357 33.8076 45.7324)" stroke="#4E9BB9" stroke-width="2"/>
<path d="M56.387 43.1574C56.0517 41.8999 55.2972 37.1214 58.0637 35.78C60.2769 34.707 62.6746 38.6304 63.5968 40.7262C64.2949 42.1148 65.8604 47.1139 65.8604 52.5469C65.8603 54.1963 65.4453 59.0981 64.0496 60.4014C63.7897 60.6441 63.4435 60.7728 63.1404 60.9587V60.9587C61.6809 61.8536 60.8805 63.5177 60.8866 65.2297C60.893 67.0004 60.7896 68.7807 60.7464 69.8169C60.6626 71.8289 60.2434 73.8409 58.0637 74.1763C55.8839 74.5116 55.4649 71.3259 55.4649 70.739C55.4649 70.1522 54.7942 62.6071 54.9618 60.6789C55.1295 58.7507 55.7292 53.6949 56.7352 50.9283" stroke="#4E9BB9" stroke-width="2"/>
<path d="M53.5488 48.624C54.1146 48.3411 55.9066 43.9479 56.7319 41.7867C56.7319 41.3145 57.8607 40.7293 59.4555 41.2682C61.0503 41.8072 60.2134 43.2893 59.9606 44.0752L56.7319 50.9242L47.4976 53.3944C46.8239 53.6002 45.3418 53.72 44.8029 52.5523C44.2639 51.3846 45.8508 50.6061 46.7116 50.3629C48.755 49.9011 52.9831 48.9069 53.5488 48.624Z" stroke="#4E9BB9" stroke-width="2"/>
<circle cx="4.43125" cy="4.43125" r="4.43125" transform="matrix(-1 0 0 1 56.9814 25.0835)" stroke="#4E9BB9" stroke-width="2"/>
<path d="M80.5755 43.1574C80.2402 41.8999 79.4857 37.1214 82.2522 35.78C84.4653 34.707 86.8631 38.6304 87.7853 40.7262C88.4833 42.1148 90.0489 47.1139 90.0488 52.5469C90.0488 54.1963 89.6337 59.0981 88.2381 60.4014C87.9782 60.6441 87.632 60.7728 87.3288 60.9587V60.9587C85.8693 61.8536 85.069 63.5177 85.0751 65.2297C85.0815 67.0004 84.9781 68.7807 84.9349 69.8169C84.8511 71.8289 84.4319 73.8409 82.2522 74.1763C80.0724 74.5116 79.6533 71.3259 79.6533 70.739C79.6533 70.1522 78.9827 62.6071 79.1503 60.6789C79.318 58.7507 79.9177 53.6949 80.9237 50.9283" stroke="#4E9BB9" stroke-width="2"/>
<path d="M77.7373 48.624C78.303 48.3411 80.0951 43.9479 80.9204 41.7867C80.9204 41.3145 82.0491 40.7293 83.644 41.2682C85.2388 41.8072 84.4019 43.2893 84.1491 44.0752L80.9204 50.9242L71.6861 53.3944C71.0124 53.6002 69.5303 53.72 68.9913 52.5523C68.4524 51.3846 70.0393 50.6061 70.9001 50.3629C72.9434 49.9011 77.1716 48.9069 77.7373 48.624Z" stroke="#4E9BB9" stroke-width="2"/>
<circle cx="4.43125" cy="4.43125" r="4.43125" transform="matrix(-1 0 0 1 81.1699 25.0835)" stroke="#4E9BB9" stroke-width="2"/>
</svg>
