<svg width="100" height="100" viewBox="0 0 100 100" fill="none" xmlns="http://www.w3.org/2000/svg">
<path fill-rule="evenodd" clip-rule="evenodd" d="M25.8321 34.9791H25.832V42.0776H25.8359V79.8651H71.8305V79.8658H75.0856V79.865H78.8228V28.7533H62.1523V26.9173H80.6588V79.865H87.0809L92.8436 79.8651V81.701H85.668L80.6588 81.701V81.7017H71.749V81.701H24.9551H23.9928H14.0685H12.3809H7.15625V79.8651H12.3809H14.0685H23.9928V42.0776H23.9961V34.801H23.9962V33.1704H8.32129V18.8943H59.7461V42.1415L49.3998 33.1704H25.8321V34.9791ZM10.1572 31.3342V20.7302H57.9103V38.1195L50.0852 31.3342H10.1572ZM39.7464 70.9572H28.5029V72.7932H39.7464V70.9572ZM39.7464 74.3631H28.5029V76.199H39.7464V74.3631ZM61.4688 59.2757H76.9907V74.7977H61.4688V59.2757ZM63.3047 72.9617H75.1547V61.1117H63.3047V72.9617ZM72.9867 63.845H65.4736V65.6809H72.9867V63.845ZM65.4736 66.8767H72.9867V68.7126H65.4736V66.8767ZM49.6191 44.1526H47.7832V53.1279H49.6191V44.1526ZM75.1553 44.1526H76.9912V53.1279H75.1553V44.1526ZM60.376 44.1526H58.9072V53.1279H60.376V44.1526ZM69.2588 44.1526H71.0947V53.1279H69.2588V44.1526ZM67.1318 44.1526H65.2959V53.1279H67.1318V44.1526ZM73.8643 44.1526H74.415V53.1279H73.8643V44.1526ZM73.2617 44.1526H72.7109V53.1279H73.2617V44.1526ZM67.9199 44.1526H68.4707V53.1279H67.9199V44.1526ZM64.5205 44.1526H63.9697V53.1279H64.5205V44.1526ZM62.1113 44.1526H62.6621V53.1279H62.1113V44.1526ZM52.7227 44.1526H52.1719V53.1279H52.7227V44.1526ZM50.8262 44.1526H51.377V53.1279H50.8262V44.1526ZM57.9531 44.1526H57.4023V53.1279H57.9531V44.1526ZM54.3047 44.1526H56.1406V53.1279H54.3047V44.1526Z" fill="#4E9BB9"/>
<path d="M15.3084 29.3899C14.7634 29.3899 14.2949 29.3012 13.903 29.1236C13.5111 28.9399 13.205 28.6613 12.9845 28.2877C12.7641 27.9081 12.6447 27.4366 12.6263 26.8732C12.6202 26.6099 12.6171 26.3497 12.6171 26.0925C12.6171 25.8353 12.6202 25.572 12.6263 25.3025C12.6447 24.7453 12.7671 24.2799 12.9937 23.9064C13.2203 23.5329 13.5295 23.2512 13.9214 23.0614C14.3194 22.8715 14.7817 22.7766 15.3084 22.7766C15.835 22.7766 16.2973 22.8715 16.6953 23.0614C17.0934 23.2512 17.4056 23.5329 17.6322 23.9064C17.8588 24.2799 17.9813 24.7453 17.9996 25.3025C18.0119 25.572 18.018 25.8353 18.018 26.0925C18.018 26.3497 18.0119 26.6099 17.9996 26.8732C17.9813 27.4366 17.8618 27.9081 17.6414 28.2877C17.421 28.6613 17.1117 28.9399 16.7137 29.1236C16.3218 29.3012 15.8534 29.3899 15.3084 29.3899ZM15.3084 28.3337C15.7064 28.3337 16.0309 28.2173 16.282 27.9846C16.5331 27.7458 16.6678 27.36 16.6861 26.8273C16.6984 26.5578 16.7045 26.3098 16.7045 26.0833C16.7045 25.8506 16.6984 25.6026 16.6861 25.3393C16.6739 24.9841 16.6065 24.6963 16.4841 24.4759C16.3677 24.2493 16.2085 24.087 16.0064 23.9891C15.8044 23.885 15.5717 23.8329 15.3084 23.8329C15.0512 23.8329 14.8215 23.885 14.6195 23.9891C14.4174 24.087 14.2551 24.2493 14.1327 24.4759C14.0163 24.6963 13.952 24.9841 13.9398 25.3393C13.9336 25.6026 13.9306 25.8506 13.9306 26.0833C13.9306 26.3098 13.9336 26.5578 13.9398 26.8273C13.9581 27.36 14.0929 27.7458 14.3439 27.9846C14.595 28.2173 14.9165 28.3337 15.3084 28.3337ZM22.1542 29.2981C22.093 29.2981 22.0409 29.2767 21.998 29.2338C21.9552 29.1909 21.9338 29.1389 21.9338 29.0777V23.0981C21.9338 23.0307 21.9552 22.9756 21.998 22.9328C22.0409 22.8899 22.093 22.8685 22.1542 22.8685H24.5332C25.2741 22.8685 25.8589 23.0399 26.2875 23.3828C26.7162 23.7257 26.9305 24.2248 26.9305 24.88C26.9305 25.3332 26.8172 25.7097 26.5906 26.0098C26.3702 26.3098 26.0732 26.5272 25.6997 26.6619L27.0407 29.0042C27.0591 29.0409 27.0683 29.0746 27.0683 29.1052C27.0683 29.1603 27.0468 29.2062 27.004 29.243C26.9672 29.2797 26.9244 29.2981 26.8754 29.2981H26.0395C25.9354 29.2981 25.8558 29.2705 25.8007 29.2154C25.7456 29.1603 25.7027 29.1052 25.6721 29.0501L24.4872 26.8732H23.2105V29.0777C23.2105 29.1389 23.1891 29.1909 23.1462 29.2338C23.1095 29.2767 23.0574 29.2981 22.99 29.2981H22.1542ZM23.2105 25.8353H24.5056C24.8791 25.8353 25.1578 25.7526 25.3415 25.5873C25.5252 25.4158 25.617 25.177 25.617 24.8708C25.617 24.5647 25.5252 24.3258 25.3415 24.1544C25.1639 23.9768 24.8853 23.888 24.5056 23.888H23.2105V25.8353ZM31.0441 29.2981C30.9829 29.2981 30.9308 29.2767 30.8879 29.2338C30.8451 29.1909 30.8236 29.1389 30.8236 29.0777V23.0981C30.8236 23.0307 30.8451 22.9756 30.8879 22.9328C30.9308 22.8899 30.9829 22.8685 31.0441 22.8685H33.2853C33.9037 22.8685 34.412 22.9634 34.81 23.1532C35.2142 23.343 35.5173 23.6247 35.7194 23.9982C35.9276 24.3718 36.0347 24.828 36.0408 25.3668C36.0531 25.6363 36.0592 25.8751 36.0592 26.0833C36.0592 26.2915 36.0531 26.5272 36.0408 26.7905C36.0286 27.36 35.9245 27.8315 35.7285 28.2051C35.5326 28.5725 35.2356 28.848 34.8376 29.0317C34.4457 29.2093 33.9436 29.2981 33.3312 29.2981H31.0441ZM32.1004 28.2418H33.2853C33.6282 28.2418 33.9068 28.1928 34.1211 28.0948C34.3355 27.9969 34.4916 27.8407 34.5896 27.6264C34.6937 27.4059 34.7488 27.1181 34.7549 26.763C34.761 26.5793 34.7641 26.4201 34.7641 26.2854C34.7702 26.1445 34.7702 26.0067 34.7641 25.872C34.7641 25.7312 34.761 25.572 34.7549 25.3944C34.7427 24.8923 34.6171 24.5218 34.3783 24.283C34.1395 24.0442 33.7598 23.9248 33.2394 23.9248H32.1004V28.2418ZM40.2121 29.2981C40.1508 29.2981 40.0988 29.2767 40.0559 29.2338C40.013 29.1909 39.9916 29.1389 39.9916 29.0777V23.0981C39.9916 23.0307 40.013 22.9756 40.0559 22.9328C40.0988 22.8899 40.1508 22.8685 40.2121 22.8685H44.2535C44.3209 22.8685 44.376 22.8899 44.4189 22.9328C44.4617 22.9756 44.4832 23.0307 44.4832 23.0981V23.7043C44.4832 23.7656 44.4617 23.8176 44.4189 23.8605C44.376 23.9033 44.3209 23.9248 44.2535 23.9248H41.2316V25.5505H44.0515C44.1188 25.5505 44.1739 25.572 44.2168 25.6148C44.2597 25.6516 44.2811 25.7036 44.2811 25.771V26.3405C44.2811 26.4078 44.2597 26.4629 44.2168 26.5058C44.1739 26.5425 44.1188 26.5609 44.0515 26.5609H41.2316V28.2418H44.327C44.3944 28.2418 44.4495 28.2632 44.4924 28.3061C44.5352 28.349 44.5567 28.4041 44.5567 28.4714V29.0777C44.5567 29.1389 44.5352 29.1909 44.4924 29.2338C44.4495 29.2767 44.3944 29.2981 44.327 29.2981H40.2121ZM48.6355 29.2981C48.5743 29.2981 48.5222 29.2767 48.4794 29.2338C48.4365 29.1909 48.4151 29.1389 48.4151 29.0777V23.0981C48.4151 23.0307 48.4365 22.9756 48.4794 22.9328C48.5222 22.8899 48.5743 22.8685 48.6355 22.8685H51.0145C51.7554 22.8685 52.3402 23.0399 52.7689 23.3828C53.1975 23.7257 53.4118 24.2248 53.4118 24.88C53.4118 25.3332 53.2985 25.7097 53.072 26.0098C52.8515 26.3098 52.5545 26.5272 52.181 26.6619L53.522 29.0042C53.5404 29.0409 53.5496 29.0746 53.5496 29.1052C53.5496 29.1603 53.5282 29.2062 53.4853 29.243C53.4486 29.2797 53.4057 29.2981 53.3567 29.2981H52.5209C52.4168 29.2981 52.3371 29.2705 52.282 29.2154C52.2269 29.1603 52.1841 29.1052 52.1534 29.0501L50.9686 26.8732H49.6918V29.0777C49.6918 29.1389 49.6704 29.1909 49.6275 29.2338C49.5908 29.2767 49.5387 29.2981 49.4714 29.2981H48.6355ZM49.6918 25.8353H50.9869C51.3605 25.8353 51.6391 25.7526 51.8228 25.5873C52.0065 25.4158 52.0983 25.177 52.0983 24.8708C52.0983 24.5647 52.0065 24.3258 51.8228 24.1544C51.6452 23.9768 51.3666 23.888 50.9869 23.888H49.6918V25.8353Z" fill="#4E9BB9"/>
</svg>
