<svg width="100" height="100" viewBox="0 0 100 100" fill="none" xmlns="http://www.w3.org/2000/svg">
<path d="M28.3861 49.5165H26.9853C26.4412 49.5165 26 49.0754 26 48.5312C26 47.987 25.5588 47.5458 25.0147 47.5458H22C21.4477 47.5458 21 47.9936 21 48.5458V51.6058C21 51.8471 21.0872 52.0802 21.2455 52.2622L23.835 55.239C23.9433 55.3635 24.0808 55.4593 24.2351 55.5177L36.3544 60.1107C36.743 60.258 37 60.6303 37 61.0458V70.025C37 70.1466 36.9778 70.2671 36.9346 70.3807L33.3038 79.9211C32.995 80.7323 31.8702 80.792 31.4774 80.0179L26 69.2235L21.0588 61.9204C21.0197 61.8626 20.9868 61.8008 20.9605 61.7361L17 51.9799L15 45.5751C14.3333 43.6044 13 39.3674 13 38.185C13 37.243 11.7305 36.2384 10.7086 35.6197C10.3047 35.3751 10.083 34.9017 10.1992 34.4439L11.2365 30.3553C11.379 29.7937 11.9671 29.4704 12.52 29.6437C14.1376 30.1508 16.3532 30.7949 17 30.7949C18 30.7949 19.5 25.3755 21 24.3901C22.0061 23.7292 25.4256 22.7913 27.7814 22.215C28.4048 22.0625 29 22.5379 29 23.1797V30.3764C29 30.6441 29.1066 30.8999 29.2973 31.0879L33.5 35.229C34.5 36.2143 35 40.6484 33.5 42.1264C32.4014 43.2089 30.3809 46.8516 29.2799 48.9716C29.1063 49.3059 28.7627 49.5165 28.3861 49.5165Z" stroke="#4E9BB9" stroke-width="2"/>
<path d="M46.3689 22.2087L41.5442 32.5811C41.2685 33.1736 40.5079 33.3469 40.0029 32.9322L35.2928 29.0647C35.1042 28.9097 34.9787 28.6911 34.94 28.45L33.6224 20.2273C33.5503 19.7775 33.7914 19.3358 34.2087 19.153L37.8661 17.5513C37.9549 17.5124 38.0489 17.4867 38.145 17.4748L41.7037 17.0365C41.897 17.0127 42.0931 17.0459 42.2678 17.132L45.5412 18.7447C45.8293 18.8866 46.0317 19.1583 46.0853 19.4749L46.4481 21.6202C46.4819 21.8198 46.4543 22.0251 46.3689 22.2087Z" stroke="#4E9BB9" stroke-width="2"/>
<path d="M49.2399 28.6765L52.5541 26.6354C52.8334 26.4634 53.1792 26.4393 53.4797 26.5709L57.4214 28.2971C57.4737 28.32 57.5279 28.3384 57.5833 28.3521L61.1629 29.2338C61.3812 29.2876 61.6113 29.2662 61.816 29.1731L74.0828 23.5945C74.3477 23.474 74.6519 23.4749 74.9161 23.597L89.6528 30.4036C90.1299 30.6239 90.355 31.176 90.1681 31.6671L89.1571 34.3236C89.057 34.5865 88.8509 34.7951 88.5892 34.8982L84.9399 36.3366C84.4223 36.5405 84.1708 37.1276 84.38 37.643L85.8652 41.3017C85.9523 41.5164 85.9622 41.7547 85.8932 41.9759L84.0745 47.7998C84.0256 47.9565 83.9388 48.0988 83.8219 48.214L81.4461 50.555C81.1732 50.8239 81.0779 51.2249 81.2007 51.5878L82.3849 55.0883C82.4593 55.3083 82.4548 55.5474 82.3722 55.7644L81.4577 58.1673C81.2257 58.7771 80.4812 59.0049 79.9476 58.6293L77.7295 57.0682C77.5794 56.9626 77.4613 56.8176 77.3881 56.6493L75.0174 51.1987C74.7559 50.5975 73.9962 50.4064 73.4813 50.8123L72.0997 51.9013C72.0335 51.9535 71.9742 52.0139 71.9231 52.081L69.6528 55.0637C69.3005 55.5266 68.6288 55.5922 68.1936 55.2062L64.5027 51.9331C64.1987 51.6635 63.7618 51.6046 63.3973 51.7842L61.3439 52.7958C61.1225 52.9049 60.8686 52.9283 60.631 52.8614L58.771 52.3377C58.133 52.1581 57.5 52.6376 57.5 53.3003V55.457C57.5 55.7514 57.6298 56.0309 57.8548 56.2209L60.4374 58.4022C60.772 58.6848 60.8838 59.1523 60.7132 59.5556L58.579 64.6027C58.5269 64.726 58.5 64.8584 58.5 64.9922V70.0537C58.5 70.4479 58.2685 70.8053 57.9088 70.9664L53.6238 72.8856C53.2477 73.054 52.8067 72.9745 52.5131 72.6852L50.7302 70.9284C50.5806 70.7809 50.4811 70.5901 50.4461 70.3829L49.0941 62.39C49.0357 62.0446 48.8008 61.7549 48.4748 61.6264L44.3301 59.9928C44.1166 59.9087 43.9385 59.7536 43.8257 59.5536L41.6289 55.6573C41.5444 55.5074 41.5 55.3382 41.5 55.1662V51.4131C41.5 51.1453 41.6074 50.8888 41.7981 50.7008L44.5916 47.9483C44.8445 47.699 44.9463 47.3343 44.859 46.9901L44.1103 44.0392C44.0401 43.7627 44.0915 43.4693 44.2514 43.2329L45.8679 40.8437C45.9548 40.7153 46.0703 40.6088 46.2055 40.5327L51.6543 37.4647C52.2861 37.109 52.3411 36.2201 51.758 35.7891L49.2649 33.9467C49.0929 33.8196 48.8845 33.7509 48.6706 33.7509H48.1288C47.3828 33.7509 46.8995 32.9637 47.2371 32.2984L48.8725 29.0754C48.9559 28.9111 49.083 28.7731 49.2399 28.6765Z" stroke="#4E9BB9" stroke-width="2"/>
<path d="M84.2344 66.714L85.9438 66.3771C86.2888 66.3091 86.6442 66.4273 86.8797 66.6884L90.04 70.1917C90.3171 70.4989 90.3765 70.945 90.1892 71.314L87.9725 75.6825C87.7149 76.1901 87.0861 76.3806 86.5901 76.1014L84.3217 74.8241C84.1141 74.7072 83.8715 74.6683 83.6377 74.7144L79.6713 75.496C79.2666 75.5758 78.8545 75.3989 78.6335 75.0505L76.6555 71.9322C76.5539 71.772 76.5 71.5862 76.5 71.3965V69.6817C76.5 69.3908 76.6267 69.1143 76.847 68.9244L80.0931 66.1256C80.3472 65.9066 80.6942 65.8295 81.0171 65.9204L83.77 66.6954C83.9212 66.738 84.0803 66.7443 84.2344 66.714Z" stroke="#4E9BB9" stroke-width="2"/>
<ellipse cx="73.3438" cy="33.6277" rx="1.5" ry="1.47802" fill="#4E9BB9"/>
<ellipse cx="69.3125" cy="37.446" rx="1.5" ry="1.47802" fill="#4E9BB9"/>
<ellipse cx="74.6875" cy="38.9241" rx="1.5" ry="1.47802" fill="#4E9BB9"/>
<ellipse cx="72" cy="44.2202" rx="1.5" ry="1.47802" fill="#4E9BB9"/>
<ellipse cx="78.7188" cy="42.7422" rx="1.5" ry="1.47802" fill="#4E9BB9"/>
<ellipse cx="78.7188" cy="34.7978" rx="1.5" ry="1.47802" fill="#4E9BB9"/>
</svg>
