<svg width="865" height="807" viewBox="0 0 865 807" fill="none" xmlns="http://www.w3.org/2000/svg">
<circle cx="403.5" cy="403.5" r="402.5" stroke="#191919" stroke-opacity="0.5" stroke-width="2"/>
<path d="M864 244.25C864 326.511 822.028 419.725 759.372 492.397C696.709 565.077 613.542 617 531.326 617C490.15 617 457.974 608.661 432.857 593.645C407.745 578.632 389.615 556.9 376.597 529.989C350.531 476.11 345 401.574 345 319C345 236.426 350.531 161.89 376.597 108.011C389.615 81.1 407.745 59.3684 432.857 44.3552C457.974 29.3387 490.15 21 531.326 21C613.854 21 697.081 35.7663 759.638 71.071C822.142 106.346 864 162.104 864 244.25Z" stroke="#191919" stroke-opacity="0.5" stroke-width="2"/>
</svg>
