<svg width="40" height="33" viewBox="0 0 40 33" fill="none" xmlns="http://www.w3.org/2000/svg">
<path fillRule="evenodd" clipRule="evenodd" d="M21.0002 17C21.0002 16.4477 20.5524 16 20.0002 16C19.4479 16 19.0002 16.4477 19.0002 17V29.5857L14.0406 24.6261C13.6501 24.2356 13.0169 24.2356 12.6264 24.6261C12.2359 25.0167 12.2359 25.6498 12.6264 26.0404L19.285 32.699C19.3324 32.7475 19.3847 32.7911 19.441 32.8292C19.4718 32.85 19.5038 32.8691 19.5369 32.8865C19.6754 32.959 19.833 33 20.0002 33C20.2318 33 20.4451 32.9212 20.6147 32.789C20.6498 32.7615 20.6831 32.7318 20.7143 32.7L27.3739 26.0404C27.7645 25.6498 27.7645 25.0167 27.3739 24.6261C26.9834 24.2356 26.3502 24.2356 25.9597 24.6261L21.0002 29.5857V17Z" fill="#3C819C"/>
<path d="M34.8001 27.1499C36.2491 26.131 37.3357 24.6768 37.9023 22.9985C38.4688 21.3201 38.4858 19.5049 37.9508 17.8163C37.4158 16.1276 36.3566 14.6534 34.9269 13.6075C33.4973 12.5616 31.7715 11.9985 30.0001 11.9999H27.9001C27.3989 10.0463 26.4609 8.23197 25.157 6.69336C23.853 5.15474 22.217 3.93199 20.3721 3.11714C18.5273 2.3023 16.5215 1.9166 14.506 1.98908C12.4905 2.06156 10.5177 2.59034 8.73605 3.5356C6.95445 4.48086 5.41051 5.81797 4.22045 7.44627C3.03038 9.07457 2.22522 10.9516 1.86557 12.9361C1.50592 14.9206 1.60115 16.9609 2.1441 18.9033C2.68705 20.8456 3.66356 22.6395 5.00013 24.1499" stroke="#3C819C" stroke-width="2" stroke-linecap="round" stroke-linejoin="round"/>
</svg>
