<svg width="92" height="92" viewBox="0 0 92 92" fill="none" xmlns="http://www.w3.org/2000/svg">
<path d="M69 69C70.525 69 71.9876 68.3942 73.0659 67.3159C74.1442 66.2375 74.75 64.775 74.75 63.25V49.2085C74.75 47.6835 74.1442 46.221 73.0659 45.1426C71.9876 44.0643 70.525 43.4585 69 43.4585H61.019C61.019 41.4403 61.1398 39.4163 61.3755 37.398C61.732 35.259 62.33 33.3558 63.158 31.694C63.9918 30.0265 65.0613 28.7212 66.3723 27.7668C67.6775 26.6973 69.3393 26.1625 71.3633 26.1625V17.25C68.034 17.25 65.1245 17.963 62.6233 19.389C60.1438 20.8005 58.012 22.7496 56.3845 25.093C54.7511 27.6766 53.5471 30.5078 52.8195 33.4765C52.0863 36.7526 51.7275 40.1014 51.75 43.4585V63.25C51.75 64.775 52.3558 66.2375 53.4342 67.3159C54.5125 68.3942 55.975 69 57.5 69H69ZM34.5 69C36.025 69 37.4876 68.3942 38.5659 67.3159C39.6442 66.2375 40.25 64.775 40.25 63.25V49.2085C40.25 47.6835 39.6442 46.221 38.5659 45.1426C37.4876 44.0643 36.025 43.4585 34.5 43.4585H26.519C26.519 41.4403 26.6398 39.4163 26.8755 37.398C27.232 35.259 27.83 33.3558 28.658 31.694C29.4918 30.0265 30.5613 28.7212 31.8723 27.7668C33.1775 26.6973 34.8393 26.1625 36.8633 26.1625V17.25C33.534 17.25 30.6245 17.963 28.1233 19.389C25.6438 20.8005 23.512 22.7496 21.8845 25.093C20.2511 27.6766 19.0472 30.5078 18.3195 33.4765C17.5863 36.7526 17.2275 40.1014 17.25 43.4585V63.25C17.25 64.775 17.8558 66.2375 18.9342 67.3159C20.0125 68.3942 21.475 69 23 69H34.5Z" fill="black" fill-opacity="0.08"/>
</svg>
